<svg class="___1okpztj f1w7gpdv fez10in fg4l7m0 f16hsg94 fwpfdsa f88nxoq f1e2fz10" aria-label="DataBarVerticalAscendingRegular" fill="currentColor" role="img" width="1em" height="1em" viewBox="0 0 20 20" xmlns="http://www.w3.org/2000/svg"><path d="M15 3a2 2 0 0 1 2 2v10a2 2 0 1 1-4 0V5c0-1.1.9-2 2-2Zm1 2a1 1 0 1 0-2 0v10a1 1 0 1 0 2 0V5Zm-4 3a2 2 0 1 0-4 0v7a2 2 0 1 0 4 0V8Zm-2-1a1 1 0 0 1 1 1v7a1 1 0 1 1-2 0V8a1 1 0 0 1 1-1Zm-3 4a2 2 0 1 0-4 0v4a2 2 0 1 0 4 0v-4Zm-2-1a1 1 0 0 1 1 1v4a1 1 0 1 1-2 0v-4a1 1 0 0 1 1-1Z" fill="currentColor"></path></svg>