<svg class="___1okpztj f1w7gpdv fez10in fg4l7m0 f16hsg94 fwpfdsa f88nxoq f1e2fz10" aria-label="CalendarFilled" fill="currentColor" role="img" width="1em" height="1em" viewBox="0 0 20 20" xmlns="http://www.w3.org/2000/svg"><path d="M5.5 3A2.5 2.5 0 0 0 3 5.5V6h14v-.5A2.5 2.5 0 0 0 14.5 3h-9ZM17 7H3v7.5A2.5 2.5 0 0 0 5.5 17h9a2.5 2.5 0 0 0 2.5-2.5V7Zm-9 3a1 1 0 1 1-2 0 1 1 0 0 1 2 0Zm-1 4a1 1 0 1 1 0-2 1 1 0 0 1 0 2Zm4-4a1 1 0 1 1-2 0 1 1 0 0 1 2 0Zm-1 4a1 1 0 1 1 0-2 1 1 0 0 1 0 2Zm4-4a1 1 0 1 1-2 0 1 1 0 0 1 2 0Z" fill="currentColor"></path></svg>