<svg class="___1okpztj f1w7gpdv fez10in fg4l7m0 f16hsg94 fwpfdsa f88nxoq f1e2fz10" aria-label="ArrowExitFilled" fill="currentColor" role="img" width="1em" height="1em" viewBox="0 0 20 20" xmlns="http://www.w3.org/2000/svg"><path d="M12.25 17.5a.75.75 0 0 0 0-1.5H6a2 2 0 0 1-2-2V6c0-1.1.9-2 2-2h6.25a.75.75 0 0 0 0-1.5H6A3.5 3.5 0 0 0 2.5 6v8A3.5 3.5 0 0 0 6 17.5h6.25Zm1.5-11.3a.75.75 0 0 1 1.05.04l3 3.25c.27.29.27.73 0 1.02l-3 3.25a.75.75 0 1 1-1.1-1.02l1.84-1.99H7.75a.75.75 0 0 1 0-1.5h7.79l-1.84-2a.75.75 0 0 1 .04-1.05Z" fill="currentColor"></path></svg>