<svg class="___1okpztj f1w7gpdv fez10in fg4l7m0 f16hsg94 fwpfdsa f88nxoq f1e2fz10" aria-label="MapDriveFilled" fill="currentColor" role="img" width="1em" height="1em" viewBox="0 0 20 20" xmlns="http://www.w3.org/2000/svg"><path d="M2 5c0-1.1.9-2 2-2h12a2 2 0 0 1 2 2v3.5a.5.5 0 0 1-.5.5h-7v2h1c.28 0 .5.22.5.5V13h1.5c.27 0 .5.22.5.5v1h3.5a.5.5 0 0 1 0 1H14v1a.5.5 0 0 1-.5.5h-7a.5.5 0 0 1-.5-.5v-1H2.5a.5.5 0 0 1 0-1H6v-1c0-.28.23-.5.5-.5H8v-1.5a.5.5 0 0 1 .5-.5h1V9h-7a.5.5 0 0 1-.5-.5V5Zm12.75 1.74a.75.75 0 1 0 0-1.5.75.75 0 0 0 0 1.5Z" fill="currentColor"></path></svg>