<svg class="___1okpztj f1w7gpdv fez10in fg4l7m0 f16hsg94 fwpfdsa f88nxoq f1e2fz10" aria-label="PulseSquareFilled" fill="currentColor" role="img" width="1em" height="1em" viewBox="0 0 20 20" xmlns="http://www.w3.org/2000/svg"><path d="M3 5c0-1.1.9-2 2-2h10a2 2 0 0 1 2 2v10a2 2 0 0 1-2 2H5a2 2 0 0 1-2-2V5Zm5.97 1.33a.5.5 0 0 0-.94 0L6.65 10H5.5a.5.5 0 0 0 0 1H7c.2 0 .4-.13.47-.32l1.02-2.73 2.04 5.72a.5.5 0 0 0 .92.05L12.8 11h1.69a.5.5 0 0 0 0-1h-2a.5.5 0 0 0-.45.28l-.97 1.95-2.1-5.9Z" fill="currentColor"></path></svg>