<svg class="fui-Icon ___l9yetr0 f1w7gpdv fez10in f1lz7lg2 f1dd5bof" aria-label="ArrowSortDownLinesFilled" fill="currentColor" role="img" width="1em" height="1em" viewBox="0 0 20 20" xmlns="http://www.w3.org/2000/svg"><path d="M15 2.75a.75.75 0 0 0-1.5 0v12.57l-1.45-1.58a.75.75 0 0 0-1.1 1.02l2.75 3a.75.75 0 0 0 1.1 0l2.75-3a.75.75 0 0 0-1.1-1.02L15 15.32V2.75ZM2.75 3.5a.75.75 0 0 0 0 1.5h8.5a.75.75 0 0 0 0-1.5h-8.5ZM5 7.25c0-.41.34-.75.75-.75h5.5a.75.75 0 0 1 0 1.5h-5.5A.75.75 0 0 1 5 7.25ZM8.75 9.5a.75.75 0 0 0 0 1.5h2.5a.75.75 0 0 0 0-1.5h-2.5Z" fill="currentColor"></path></svg>