<svg class="___1okpztj f1w7gpdv fez10in fg4l7m0 f16hsg94 fwpfdsa f88nxoq f1e2fz10" aria-label="FilmstripFilled" fill="currentColor" role="img" width="1em" height="1em" viewBox="0 0 20 20" xmlns="http://www.w3.org/2000/svg"><path d="M2 7a3 3 0 0 1 3-3h10a3 3 0 0 1 3 3v6a3 3 0 0 1-3 3H5a3 3 0 0 1-3-3V7Zm13-.5v1a.5.5 0 0 0 1 0v-1a.5.5 0 0 0-1 0Zm.5 5.5a.5.5 0 0 0-.5.5v1a.5.5 0 0 0 1 0v-1a.5.5 0 0 0-.5-.5ZM15 9.5v1a.5.5 0 0 0 1 0v-1a.5.5 0 0 0-1 0ZM4.5 6a.5.5 0 0 0-.5.5v1a.5.5 0 0 0 1 0v-1a.5.5 0 0 0-.5-.5ZM4 12.5v1a.5.5 0 0 0 1 0v-1a.5.5 0 0 0-1 0ZM4.5 9a.5.5 0 0 0-.5.5v1a.5.5 0 0 0 1 0v-1a.5.5 0 0 0-.5-.5Z" fill="currentColor"></path></svg>